<svg width="1200" height="720" viewBox="0 0 1200 720" xmlns="http://www.w3.org/2000/svg" role="img" aria-label="Асфальтовый завод с неоновой подсветкой">
  <defs>
    <linearGradient id="lumenBg" x1="0" y1="0" x2="0" y2="1">
      <stop offset="0%" stop-color="#03060C" />
      <stop offset="55%" stop-color="#0C0F1C" />
      <stop offset="100%" stop-color="#141727" />
    </linearGradient>
    <linearGradient id="lumenGlow" x1="0" y1="0" x2="1" y2="0">
      <stop offset="0%" stop-color="#68F6D8" stop-opacity="0" />
      <stop offset="50%" stop-color="#68F6D8" stop-opacity="0.4" />
      <stop offset="100%" stop-color="#68F6D8" stop-opacity="0" />
    </linearGradient>
    <linearGradient id="lumenBody" x1="0" y1="0" x2="0" y2="1">
      <stop offset="0%" stop-color="#212B42" />
      <stop offset="100%" stop-color="#0C101B" />
    </linearGradient>
    <linearGradient id="lumenAccent" x1="0" y1="0" x2="1" y2="1">
      <stop offset="0%" stop-color="#F8E5B9" />
      <stop offset="100%" stop-color="#C99A4C" />
    </linearGradient>
    <filter id="lumenNoise">
      <feTurbulence type="fractalNoise" baseFrequency="0.8" numOctaves="2" seed="33" />
      <feColorMatrix type="matrix" values="0 0 0 0 0  0 0 0 0 0  0 0 0 0 0  0 0 0 0.07 0" />
    </filter>
  </defs>

  <rect width="1200" height="720" fill="url(#lumenBg)" />
  <rect y="510" width="1200" height="210" fill="#05070E" />
  <rect y="480" width="1200" height="80" fill="url(#lumenGlow)" />
  <g opacity="0.25" filter="url(#lumenNoise)">
    <rect width="1200" height="720" fill="#000" />
  </g>

  <path d="M0 500 L150 470 L320 500 L480 465 L650 495 L820 470 L1000 490 L1150 470 L1200 450 L1200 560 L0 560 Z" fill="#080B13" />

  <!-- корпуса -->
  <g>
    <rect x="120" y="300" width="120" height="220" rx="20" fill="#151A28" stroke="#253047" stroke-width="2" />
    <rect x="260" y="270" width="140" height="250" rx="20" fill="#1A2132" stroke="#2C374E" stroke-width="2" />
    <rect x="420" y="250" width="150" height="270" rx="24" fill="#20283B" stroke="#334055" stroke-width="2" />
    <rect x="590" y="240" width="160" height="280" rx="26" fill="#252F43" stroke="#37455B" stroke-width="2" />
    <rect x="780" y="260" width="170" height="260" rx="26" fill="#192032" stroke="#2B3346" stroke-width="2" />
    <rect x="980" y="290" width="150" height="220" rx="22" fill="#151B2A" stroke="#253047" stroke-width="2" />
  </g>

  <!-- панели -->
  <g fill="#0B0F18" opacity="0.75">
    <rect x="145" y="330" width="70" height="60" rx="10" />
    <rect x="285" y="310" width="90" height="50" rx="10" />
    <rect x="285" y="370" width="90" height="50" rx="10" />
    <rect x="450" y="300" width="110" height="60" rx="12" />
    <rect x="450" y="380" width="110" height="60" rx="12" />
    <rect x="620" y="300" width="120" height="60" rx="12" />
    <rect x="620" y="380" width="120" height="60" rx="12" />
    <rect x="800" y="310" width="120" height="60" rx="12" />
    <rect x="800" y="380" width="120" height="60" rx="12" />
  </g>

  <!-- неоновые контуры -->
  <g stroke="#5EF7D6" stroke-width="4" opacity="0.4">
    <rect x="120" y="300" width="120" height="220" rx="20" fill="none" />
    <rect x="260" y="270" width="140" height="250" rx="20" fill="none" />
    <rect x="420" y="250" width="150" height="270" rx="24" fill="none" />
    <rect x="590" y="240" width="160" height="280" rx="26" fill="none" />
    <rect x="780" y="260" width="170" height="260" rx="26" fill="none" />
    <rect x="980" y="290" width="150" height="220" rx="22" fill="none" />
  </g>

  <!-- галереи -->
  <g fill="#0A1019">
    <rect x="200" y="360" width="250" height="16" rx="8" />
    <rect x="200" y="380" width="16" height="150" rx="8" />
    <rect x="390" y="340" width="320" height="16" rx="8" />
    <rect x="390" y="360" width="16" height="170" rx="8" />
    <rect x="660" y="330" width="300" height="16" rx="8" />
    <rect x="660" y="350" width="16" height="160" rx="8" />
  </g>

  <!-- транспортёр -->
  <g>
    <path d="M60 540 L300 470 L580 520 L860 480 L1100 500 L1200 470 L1200 590 L60 590 Z" fill="#060910" />
    <path d="M80 540 L300 475 L580 525 L860 485 L1100 505 L1200 480" stroke="#2B384D" stroke-width="6" stroke-linecap="round" />
    <path d="M110 550 L320 485 L600 530 L880 490 L1110 510 L1200 490" stroke="#141C2B" stroke-width="3" stroke-linecap="round" />
  </g>

  <!-- акценты -->
  <g fill="url(#lumenAccent)">
    <rect x="320" y="330" width="18" height="85" rx="6" />
    <rect x="490" y="310" width="18" height="100" rx="6" />
    <rect x="660" y="320" width="20" height="95" rx="6" />
    <rect x="840" y="340" width="16" height="80" rx="6" />
    <rect x="1010" y="350" width="14" height="70" rx="6" />
    <circle cx="905" cy="360" r="6" />
    <circle cx="730" cy="330" r="6" />
  </g>

  <!-- дым -->
  <g opacity="0.35">
    <path d="M250 210 C270 180 310 185 325 210 C340 235 315 250 300 230 C285 210 270 240 250 230 C230 220 235 200 245 195" fill="#C4D6DF" fill-opacity="0.18" />
    <path d="M600 210 C620 180 660 185 675 215 C690 245 660 255 645 235 C630 215 615 245 590 235 C565 225 570 205 585 200" fill="#D1E2E7" fill-opacity="0.16" />
  </g>

  <g fill="#F4E3BB">
    <circle cx="150" cy="590" r="3" />
    <circle cx="380" cy="590" r="3" />
    <circle cx="640" cy="590" r="3" />
    <circle cx="900" cy="590" r="3" />
    <circle cx="1130" cy="590" r="3" />
  </g>
</svg>
