<svg width="1200" height="720" viewBox="0 0 1200 720" xmlns="http://www.w3.org/2000/svg" role="img" aria-label="Асфальтобетонный завод в фирменной палитре ApexGlobal">
  <defs>
    <linearGradient id="bg" x1="0" y1="0" x2="0" y2="1">
      <stop offset="0%" stop-color="#05070E" />
      <stop offset="50%" stop-color="#0C1421" />
      <stop offset="100%" stop-color="#121C2C" />
    </linearGradient>
    <linearGradient id="sun" x1="0" y1="0" x2="1" y2="0">
      <stop offset="0%" stop-color="#E1C177" stop-opacity="0" />
      <stop offset="50%" stop-color="#E1C177" stop-opacity="0.7" />
      <stop offset="100%" stop-color="#E1C177" stop-opacity="0" />
    </linearGradient>
    <linearGradient id="body" x1="0" y1="0" x2="0" y2="1">
      <stop offset="0%" stop-color="#242F45" />
      <stop offset="100%" stop-color="#111824" />
    </linearGradient>
    <linearGradient id="accent" x1="0" y1="0" x2="1" y2="1">
      <stop offset="0%" stop-color="#F5DFA5" />
      <stop offset="100%" stop-color="#C59845" />
    </linearGradient>
    <filter id="grain">
      <feTurbulence type="fractalNoise" baseFrequency="0.7" numOctaves="2" seed="7" />
      <feColorMatrix type="matrix" values="0 0 0 0 0  0 0 0 0 0  0 0 0 0 0  0 0 0 0.08 0" />
    </filter>
  </defs>

  <rect width="1200" height="720" fill="url(#bg)" />
  <rect y="500" width="1200" height="220" fill="#04070C" />
  <rect y="470" width="1200" height="80" fill="url(#sun)" opacity="0.5" />
  <g opacity="0.35" filter="url(#grain)">
    <rect width="1200" height="720" fill="#000" />
  </g>

  <!-- горизонт -->
  <path d="M0 470 L90 450 L210 470 L320 445 L450 465 L560 430 L700 460 L820 435 L920 450 L1040 430 L1150 450 L1200 430 L1200 500 L0 500 Z" fill="#0B111C" />

  <!-- силосы -->
  <g>
    <rect x="120" y="270" width="80" height="230" rx="12" fill="url(#body)" stroke="#1E293A" stroke-width="2" />
    <rect x="215" y="250" width="95" height="250" rx="14" fill="url(#body)" stroke="#233047" stroke-width="2" />
    <rect x="330" y="260" width="85" height="240" rx="12" fill="#1A2334" stroke="#27334A" stroke-width="2" />
    <rect x="430" y="280" width="70" height="220" rx="12" fill="#192233" stroke="#222C40" stroke-width="2" />
    <rect x="520" y="250" width="110" height="250" rx="16" fill="#212C40" stroke="#2E3A52" stroke-width="2" />
    <rect x="650" y="230" width="120" height="270" rx="18" fill="#242F44" stroke="#31415A" stroke-width="2" />
  </g>

  <!-- корпус -->
  <g>
    <rect x="790" y="260" width="150" height="240" rx="18" fill="#1B2334" stroke="#2B3950" stroke-width="2" />
    <rect x="810" y="280" width="110" height="80" fill="#141C2A" />
    <rect x="810" y="380" width="110" height="80" fill="#161F2E" />
    <rect x="960" y="280" width="110" height="200" rx="16" fill="#202B3E" stroke="#2E3B53" stroke-width="2" />
    <rect x="1090" y="300" width="70" height="180" rx="12" fill="#1A2434" stroke="#253149" stroke-width="2" />
  </g>

  <!-- галереи -->
  <g fill="#0B111C">
    <rect x="150" y="340" width="330" height="14" rx="7" />
    <rect x="150" y="360" width="14" height="120" rx="7" />
    <rect x="360" y="320" width="260" height="12" rx="6" />
    <rect x="480" y="340" width="14" height="140" rx="7" />
    <rect x="560" y="320" width="12" height="160" rx="6" />
    <rect x="780" y="340" width="170" height="16" rx="8" />
    <rect x="780" y="360" width="14" height="120" rx="7" />
  </g>

  <!-- конвейер -->
  <g>
    <path d="M60 480 L280 420 L520 470 L780 420 L980 450 L1200 400 L1200 520 L60 520 Z" fill="#080D16" />
    <path d="M70 480 L280 425 L520 472 L780 425 L980 452 L1200 410" stroke="#293347" stroke-width="6" stroke-linecap="round" />
    <path d="M95 490 L295 435 L535 478 L795 433 L995 458 L1200 420" stroke="#151C2A" stroke-width="3" stroke-linecap="round" />
  </g>

  <!-- акценты -->
  <g fill="url(#accent)">
    <rect x="248" y="310" width="16" height="90" rx="4" />
    <rect x="355" y="295" width="24" height="110" rx="6" />
    <rect x="455" y="315" width="12" height="80" rx="4" />
    <rect x="680" y="260" width="20" height="70" rx="6" />
    <circle cx="580" cy="320" r="6" />
    <circle cx="905" cy="330" r="7" />
    <circle cx="1040" cy="360" r="5" />
  </g>

  <!-- дым -->
  <g opacity="0.35">
    <path d="M210 210 C230 180 270 180 290 210 C310 240 280 255 265 235 C250 215 235 245 215 235 C195 225 195 205 205 205" fill="#9FAFC6" fill-opacity="0.25" />
    <path d="M520 190 C540 165 575 170 590 195 C605 220 580 235 565 220 C550 205 535 235 510 225 C485 215 490 195 505 190" fill="#A8B8CE" fill-opacity="0.2" />
  </g>

  <!-- огни -->
  <g fill="#F1D391">
    <circle cx="150" cy="520" r="3" />
    <circle cx="340" cy="520" r="3" />
    <circle cx="560" cy="520" r="3" />
    <circle cx="780" cy="520" r="3" />
    <circle cx="1020" cy="520" r="3" />
  </g>
</svg>
