<svg width="1200" height="720" viewBox="0 0 1200 720" xmlns="http://www.w3.org/2000/svg" role="img" aria-label="Стилизованный асфальтобетонный завод ApexGlobal">
  <defs>
    <linearGradient id="bgGradient" x1="0" y1="0" x2="0" y2="1">
      <stop offset="0%" stop-color="#04070C" />
      <stop offset="55%" stop-color="#0E1624" />
      <stop offset="100%" stop-color="#131F30" />
    </linearGradient>
    <linearGradient id="horizonGlow" x1="0" y1="0" x2="1" y2="0">
      <stop offset="0%" stop-color="#C9A857" stop-opacity="0" />
      <stop offset="50%" stop-color="#C9A857" stop-opacity="0.55" />
      <stop offset="100%" stop-color="#C9A857" stop-opacity="0" />
    </linearGradient>
    <linearGradient id="siloGradient" x1="0" y1="0" x2="0" y2="1">
      <stop offset="0%" stop-color="#202838" />
      <stop offset="100%" stop-color="#111723" />
    </linearGradient>
    <linearGradient id="towerGradient" x1="0" y1="0" x2="0" y2="1">
      <stop offset="0%" stop-color="#38445A" />
      <stop offset="100%" stop-color="#1B2231" />
    </linearGradient>
    <linearGradient id="goldAccent" x1="0" y1="0" x2="1" y2="1">
      <stop offset="0%" stop-color="#F2D08C" />
      <stop offset="100%" stop-color="#C08D3B" />
    </linearGradient>
    <linearGradient id="beltGradient" x1="0" y1="0" x2="1" y2="0">
      <stop offset="0%" stop-color="#101622" />
      <stop offset="100%" stop-color="#0C111C" />
    </linearGradient>
    <filter id="noise" x="0" y="0" width="1" height="1">
      <feTurbulence type="fractalNoise" baseFrequency="0.8" numOctaves="2" seed="12" result="noise" />
      <feColorMatrix type="matrix" values="0 0 0 0 0  0 0 0 0 0  0 0 0 0 0  0 0 0 0.08 0" />
    </filter>
    <filter id="softGlow" x="-0.2" y="-0.2" width="1.4" height="1.4">
      <feGaussianBlur stdDeviation="30" result="blur"/>
      <feBlend in="SourceGraphic" in2="blur" mode="screen"/>
    </filter>
  </defs>

  <rect width="1200" height="720" fill="url(#bgGradient)" />
  <rect y="480" width="1200" height="240" fill="#05080F" />
  <rect y="470" width="1200" height="80" fill="url(#horizonGlow)" opacity="0.55" filter="url(#softGlow)" />

  <g opacity="0.45" filter="url(#noise)">
    <rect width="1200" height="720" fill="#000"/>
  </g>

  <!-- Дальний индустриальный фон -->
  <g opacity="0.25">
    <path d="M80 410 L200 380 L300 420 L360 400 L460 430 L560 390 L640 420 L760 380 L900 420 L1020 390 L1160 430 L1200 410 L1200 470 L80 470 Z" fill="#0D141F" />
    <rect x="210" y="330" width="40" height="90" fill="#131C2A" />
    <rect x="250" y="300" width="25" height="120" fill="#141D2B" />
    <rect x="880" y="320" width="35" height="115" fill="#151E2C" />
    <rect x="930" y="290" width="28" height="145" fill="#131C29" />
  </g>

  <!-- Основные силосы -->
  <g>
    <rect x="180" y="260" width="80" height="230" rx="12" fill="url(#siloGradient)" stroke="#1E2737" stroke-width="2" />
    <rect x="280" y="240" width="90" height="250" rx="12" fill="url(#siloGradient)" stroke="#1E2737" stroke-width="2" />
    <rect x="380" y="250" width="80" height="240" rx="12" fill="url(#siloGradient)" stroke="#1E2737" stroke-width="2" />
    <rect x="480" y="270" width="70" height="220" rx="10" fill="url(#siloGradient)" stroke="#1E2737" stroke-width="2" />
    <rect x="570" y="250" width="95" height="240" rx="12" fill="url(#towerGradient)" stroke="#253047" stroke-width="2" />
  </g>

  <!-- Башня и лестницы -->
  <g>
    <rect x="690" y="220" width="130" height="280" rx="16" fill="url(#towerGradient)" stroke="#253047" stroke-width="2" />
    <rect x="705" y="240" width="100" height="70" fill="#192233" />
    <rect x="705" y="330" width="100" height="60" fill="#1E283A" />
    <rect x="705" y="410" width="100" height="70" fill="#1A2434" />
    <rect x="835" y="260" width="55" height="240" rx="10" fill="#1A2232" stroke="#232E42" stroke-width="2" />
    <rect x="835" y="390" width="130" height="100" rx="14" fill="#121A28" />
    <rect x="930" y="260" width="70" height="220" rx="12" fill="#1A2231" stroke="#242E42" stroke-width="2" />
    <rect x="1010" y="280" width="60" height="200" rx="10" fill="#1B2333" stroke="#253049" stroke-width="2" />
  </g>

  <!-- Трубопроводы и мостики -->
  <g fill="url(#beltGradient)">
    <rect x="220" y="330" width="430" height="16" rx="8" />
    <rect x="320" y="360" width="350" height="14" rx="7" />
    <rect x="540" y="300" width="220" height="14" rx="7" />
    <rect x="540" y="320" width="14" height="160" rx="7" />
    <rect x="610" y="330" width="14" height="130" rx="7" />
    <rect x="880" y="330" width="160" height="14" rx="7" />
  </g>

  <!-- Конвейер -->
  <g>
    <path d="M150 430 L420 360 L720 420 L950 380 L1050 405 L1200 370 L1200 470 L150 470 Z" fill="#0B111C" />
    <path d="M160 430 L420 365 L700 420 L930 385 L1040 410 L1200 380" stroke="#2F3B50" stroke-width="6" stroke-linecap="round" />
    <path d="M180 440 L430 375 L710 428 L945 390 L1055 415 L1200 388" stroke="#151D2B" stroke-width="3" stroke-linecap="round" />
  </g>

  <!-- Золотые акценты -->
  <g fill="url(#goldAccent)">
    <rect x="245" y="310" width="18" height="90" rx="4" />
    <rect x="342" y="290" width="26" height="110" rx="6" />
    <rect x="455" y="305" width="14" height="80" rx="4" />
    <circle cx="520" cy="320" r="6" />
    <circle cx="760" cy="255" r="7" />
    <circle cx="905" cy="345" r="6" />
    <circle cx="1035" cy="360" r="5" />
  </g>

  <!-- Дым и детали -->
  <g opacity="0.4">
    <path d="M300 220 C320 190 360 190 380 220 C400 250 360 260 350 240 C340 220 320 250 300 240 C280 230 280 250 260 248 C240 246 250 210 280 210" fill="#91A1B7" fill-opacity="0.25" />
    <path d="M520 210 C540 180 580 185 595 210 C610 235 585 250 570 235 C555 220 540 250 515 240 C490 230 495 205 510 205" fill="#9AAAC2" fill-opacity="0.2" />
  </g>

  <!-- Световые точки -->
  <g fill="#F9DFA7">
    <circle cx="250" cy="470" r="3" />
    <circle cx="420" cy="470" r="3" />
    <circle cx="620" cy="470" r="3" />
    <circle cx="780" cy="470" r="3" />
    <circle cx="950" cy="470" r="3" />
  </g>
</svg>
